<svg width="24" height="24" viewBox="0 0 24 24" fill="none" xmlns="http://www.w3.org/2000/svg">
<path d="M13.1999 16.8003H10.7999V19.2003H13.1999V16.8003Z" fill="#1C2039"/>
<path d="M12 0C5.3726 0 0 5.3726 0 12C0 18.6273 5.3726 23.9999 12 23.9999C18.6273 23.9999 23.9999 18.6273 23.9999 12C23.9999 5.3726 18.6274 0 12 0ZM12 21.828C6.57213 21.828 2.17198 17.4278 2.17198 12C2.17198 6.57213 6.57213 2.17198 12 2.17198C17.4251 2.17856 21.8213 6.57483 21.828 12C21.828 17.4279 17.4279 21.828 12 21.828Z" fill="#1C2039"/>
<path d="M16.668 8.46023C16.0507 5.88212 13.4603 4.29261 10.8822 4.9099C8.71476 5.42886 7.18965 7.37151 7.2 9.60025H9.60002C9.71269 8.27477 10.8785 7.29158 12.204 7.40425C13.5295 7.51692 14.5127 8.68275 14.4 10.0082C14.1549 11.201 13.0849 12.0427 11.868 12.0002C11.2782 12.0002 10.8 12.4784 10.8 13.0682V15.6002H13.2V14.2322C15.738 13.5777 17.2818 11.0084 16.668 8.46023Z" fill="#1C2039"/>
</svg>
