<svg width="136" height="180" viewBox="0 0 136 180" fill="none" xmlns="http://www.w3.org/2000/svg">
<path d="M66.9859 9.35594L66.9859 35.5785L53.8854 22.4672C48.7061 17.2837 40.4802 17.2837 35.3009 22.4672C30.1216 27.6508 30.1216 35.8834 35.3009 41.067L43.8315 49.6046L18.3921 49.6046C10.0138 37.2556 11.2325 20.3328 22.2004 9.35594C34.5393 -2.99308 54.6471 -2.99308 66.9859 9.35594Z" fill="#F6F7F9"/>
<path d="M100.499 2.03738L66.9859 35.5779L66.9859 9.35531C76.1258 0.207896 89.2264 -2.23142 100.499 2.03738Z" fill="#F6F7F9"/>
<path d="M115.58 49.604L90.1403 49.604L119.083 20.6372C122.587 30.0895 121.521 40.914 115.58 49.604Z" fill="#F6F7F9"/>
<path d="M115.58 49.6039C114.513 51.281 113.142 52.8055 111.772 54.1777L66.9859 99L66.9859 72.7774L90.1404 49.6039L115.58 49.6039Z" fill="#F6F7F9"/>
<path d="M66.9859 72.7774L66.9859 99L22.2003 54.1777C20.677 52.6531 19.4584 51.1285 18.392 49.6039L43.8315 49.6039L66.9859 72.7774Z" fill="#F6F7F9"/>
<path d="M0.723511 155H18.1835C22.7435 155 26.2235 153.92 28.6235 151.76C31.0235 149.6 32.2235 146.78 32.2235 143.24C32.2235 140.48 31.4435 138.14 30.0035 136.28C28.5035 134.42 26.4035 133.16 23.6435 132.44V132.32C25.8035 131.48 27.4235 130.22 28.5035 128.48C29.5235 126.8 30.0635 124.88 30.0635 122.78C30.0635 119.42 28.8635 116.84 26.4635 115.04C24.0635 113.3 20.5835 112.4 16.0835 112.4H0.723511V155ZM9.06351 129.8V119.84H15.0635C19.3835 119.84 21.5435 121.52 21.5435 124.82C21.5435 128.18 19.5035 129.8 15.4235 129.8H9.06351ZM9.06351 147.56V136.64H16.1435C18.5435 136.64 20.3435 137.18 21.6035 138.14C22.8035 139.1 23.4635 140.48 23.4635 142.16C23.4635 143.96 22.8635 145.28 21.7235 146.18C20.5835 147.14 19.0235 147.56 16.9835 147.56H9.06351Z" fill="#F6F7F9"/>
<path d="M48.7596 155.54C52.2396 155.54 55.1196 154.22 57.3996 151.46L57.5196 151.52V155H65.4396V125.66H57.5196V139.94C57.5196 142.64 56.8596 144.74 55.5996 146.24C54.3396 147.74 52.8396 148.46 51.0396 148.46C49.1196 148.46 47.7996 147.98 46.9596 146.9C46.1196 145.82 45.7596 143.96 45.7596 141.32V125.66H37.9596V143.36C37.9596 151.52 41.5596 155.54 48.7596 155.54Z" fill="#F6F7F9"/>
<path d="M73.0113 155H80.8713V140.36C80.8713 137.84 81.4113 135.86 82.5513 134.42C83.6913 132.98 85.1913 132.26 87.0513 132.26C90.4713 132.26 92.2113 134.84 92.2113 139.88V155H100.071V140.36C100.071 137.84 100.611 135.86 101.751 134.42C102.891 132.98 104.331 132.26 106.071 132.26C109.431 132.26 111.171 134.84 111.171 139.88V155H119.031V138.02C119.031 129.5 115.551 125.24 108.711 125.24C104.271 125.24 100.851 126.8 98.4513 129.86H98.3313C96.6513 126.8 93.7713 125.24 89.6913 125.24C86.2113 125.24 83.2713 126.68 80.9313 129.5H80.8713V125.66H73.0113V155Z" fill="#F6F7F9"/>
<path d="M130.77 121.7C132.15 121.7 133.35 121.28 134.31 120.32C135.27 119.36 135.75 118.22 135.75 116.84C135.75 115.52 135.27 114.44 134.31 113.48C133.35 112.52 132.15 112.04 130.77 112.04C129.33 112.04 128.13 112.52 127.17 113.48C126.21 114.44 125.79 115.52 125.79 116.84C125.79 118.22 126.21 119.36 127.17 120.32C128.13 121.28 129.33 121.7 130.77 121.7ZM126.75 155H134.61V125.66H126.75V155Z" fill="#F6F7F9"/>
<path d="M3.24312 176H5.32312V173.872L6.37912 172.72L8.31512 176H10.6671L7.86712 171.312L10.6031 168.176H8.13912L5.35512 171.456H5.32312V164.224H3.24312V176Z" fill="#F6F7F9"/>
<path d="M11.8212 176H13.9172V172.384C13.9172 171.776 14.0772 171.296 14.4292 170.912C14.7812 170.528 15.2612 170.336 15.9012 170.336C16.1252 170.336 16.3012 170.352 16.4612 170.352V168.064H16.3012C15.3412 168.064 14.5572 168.48 13.9492 169.312H13.9172V168.176H11.8212V176Z" fill="#F6F7F9"/>
<path d="M24.8512 172.016C24.8512 170.864 24.4992 169.92 23.7952 169.184C23.0912 168.448 22.1952 168.064 21.1072 168.064C19.9392 168.064 18.9792 168.448 18.2432 169.184C17.5072 169.936 17.1392 170.896 17.1392 172.08C17.1392 173.296 17.5072 174.288 18.2752 175.024C19.0432 175.776 20.0192 176.144 21.2352 176.144C22.7392 176.144 23.8752 175.648 24.6432 174.656L23.2832 173.392C22.8032 173.984 22.1632 174.272 21.3792 174.272C20.8512 174.272 20.4032 174.144 20.0512 173.872C19.6832 173.616 19.4432 173.248 19.3152 172.768H24.8032C24.8352 172.512 24.8512 172.272 24.8512 172.016ZM21.0912 169.888C21.9712 169.888 22.5312 170.352 22.7712 171.264H19.3312C19.4432 170.832 19.6512 170.496 19.9712 170.256C20.2912 170.016 20.6592 169.888 21.0912 169.888Z" fill="#F6F7F9"/>
<path d="M29.7575 176.144C30.7495 176.144 31.5335 175.792 32.1095 175.056L32.1415 175.072V176H34.1415V168.176H32.0455V169.072L32.0135 169.088C31.4375 168.416 30.6695 168.064 29.7095 168.064C28.6535 168.064 27.7735 168.448 27.0695 169.216C26.3655 169.984 26.0295 170.944 26.0295 172.112C26.0295 173.312 26.3655 174.288 27.0695 175.024C27.7735 175.776 28.6695 176.144 29.7575 176.144ZM30.1575 174.256C29.5655 174.256 29.0855 174.064 28.7175 173.664C28.3335 173.28 28.1575 172.768 28.1575 172.128C28.1575 171.472 28.3335 170.944 28.7175 170.544C29.1015 170.144 29.5815 169.936 30.1575 169.936C30.7175 169.936 31.1815 170.144 31.5655 170.56C31.9495 170.976 32.1415 171.504 32.1415 172.128C32.1415 172.768 31.9495 173.28 31.5655 173.664C31.1815 174.064 30.7015 174.256 30.1575 174.256Z" fill="#F6F7F9"/>
<path d="M38.5497 176.144C39.3177 176.144 40.0057 175.984 40.6137 175.648L40.0857 173.968C39.7177 174.16 39.3817 174.24 39.0937 174.24C38.8377 174.24 38.6617 174.16 38.5657 174C38.4697 173.84 38.4217 173.584 38.4217 173.232V169.92H40.5337V168.176H38.4217V165.408L36.3257 165.632V168.176H35.3977V169.92H36.3257V173.536C36.3257 174.4 36.5177 175.04 36.9177 175.488C37.3017 175.936 37.8457 176.144 38.5497 176.144Z" fill="#F6F7F9"/>
<path d="M45.3774 176.144C46.5934 176.144 47.5854 175.776 48.3534 175.024C49.1214 174.272 49.5214 173.296 49.5214 172.096C49.5214 170.912 49.1214 169.936 48.3534 169.184C47.5854 168.448 46.5934 168.064 45.3774 168.064C44.1294 168.064 43.1374 168.448 42.3694 169.2C41.6014 169.968 41.2174 170.928 41.2174 172.096C41.2174 173.28 41.6014 174.256 42.3694 175.008C43.1374 175.776 44.1294 176.144 45.3774 176.144ZM45.3774 174.256C44.7694 174.256 44.2894 174.064 43.9054 173.648C43.5214 173.232 43.3454 172.72 43.3454 172.096C43.3454 171.488 43.5214 170.976 43.9054 170.56C44.2894 170.144 44.7694 169.936 45.3774 169.936C45.9534 169.936 46.4334 170.144 46.8174 170.544C47.2014 170.944 47.3934 171.456 47.3934 172.096C47.3934 172.736 47.1854 173.248 46.8014 173.648C46.4174 174.064 45.9374 174.256 45.3774 174.256Z" fill="#F6F7F9"/>
<path d="M51.165 176H53.261V172.384C53.261 171.776 53.421 171.296 53.773 170.912C54.125 170.528 54.605 170.336 55.245 170.336C55.469 170.336 55.645 170.352 55.805 170.352V168.064H55.645C54.685 168.064 53.901 168.48 53.293 169.312H53.261V168.176H51.165V176Z" fill="#F6F7F9"/>
<path d="M63.1155 176H64.9235L66.3155 171.248H66.3315L67.7395 176H69.5475L72.2035 168.176H70.1075L68.6195 172.96H68.5875L67.1795 168.176H65.4995L64.1075 172.96H64.0915L62.5875 168.176H60.4755L63.1155 176Z" fill="#F6F7F9"/>
<path d="M74.4684 179.168H76.5964L80.8044 168.176H78.6764L76.9004 172.976H76.8684L74.9644 168.176H72.7244L75.8604 175.52L74.4684 179.168Z" fill="#F6F7F9"/>
<path d="M82.1025 176H84.1825V173.872L85.2385 172.72L87.1745 176H89.5265L86.7265 171.312L89.4625 168.176H86.9985L84.2145 171.456H84.1825V164.224H82.1025V176Z" fill="#F6F7F9"/>
<path d="M90.6806 176H92.7766V172.384C92.7766 171.776 92.9366 171.296 93.2886 170.912C93.6406 170.528 94.1206 170.336 94.7606 170.336C94.9846 170.336 95.1606 170.352 95.3206 170.352V168.064H95.1606C94.2006 168.064 93.4166 168.48 92.8086 169.312H92.7766V168.176H90.6806V176Z" fill="#F6F7F9"/>
<path d="M103.711 172.016C103.711 170.864 103.359 169.92 102.655 169.184C101.951 168.448 101.055 168.064 99.9666 168.064C98.7986 168.064 97.8386 168.448 97.1026 169.184C96.3666 169.936 95.9986 170.896 95.9986 172.08C95.9986 173.296 96.3666 174.288 97.1346 175.024C97.9026 175.776 98.8786 176.144 100.095 176.144C101.599 176.144 102.735 175.648 103.503 174.656L102.143 173.392C101.663 173.984 101.023 174.272 100.239 174.272C99.7106 174.272 99.2626 174.144 98.9106 173.872C98.5426 173.616 98.3026 173.248 98.1746 172.768H103.663C103.695 172.512 103.711 172.272 103.711 172.016ZM99.9506 169.888C100.831 169.888 101.391 170.352 101.631 171.264H98.1906C98.3026 170.832 98.5106 170.496 98.8306 170.256C99.1506 170.016 99.5186 169.888 99.9506 169.888Z" fill="#F6F7F9"/>
<path d="M107.865 176.144C108.841 176.144 109.593 175.92 110.105 175.472C110.617 175.024 110.889 174.448 110.889 173.712C110.889 173.408 110.841 173.136 110.745 172.912C110.649 172.688 110.553 172.496 110.441 172.336C110.329 172.192 110.137 172.048 109.865 171.888C109.577 171.728 109.337 171.616 109.145 171.536C108.937 171.456 108.617 171.328 108.201 171.168C107.433 170.88 107.049 170.608 107.049 170.336C107.049 170.144 107.113 170 107.273 169.904C107.417 169.808 107.593 169.76 107.785 169.76C108.457 169.76 109.081 170.048 109.657 170.592L110.681 169.04C109.833 168.4 108.889 168.064 107.833 168.064C107.001 168.064 106.329 168.288 105.801 168.704C105.257 169.136 105.001 169.696 105.001 170.384C105.001 171.088 105.209 171.616 105.625 172C106.041 172.384 106.649 172.688 107.417 172.944C107.961 173.136 108.329 173.28 108.521 173.392C108.713 173.504 108.825 173.632 108.825 173.792C108.825 173.984 108.729 174.144 108.569 174.256C108.409 174.384 108.169 174.432 107.881 174.432C107.081 174.432 106.345 174.144 105.705 173.536L104.697 174.992C105.577 175.76 106.633 176.144 107.865 176.144Z" fill="#F6F7F9"/>
<path d="M115.134 167.136H117.166L119.15 164.784L116.958 164.8L115.134 167.136ZM116.19 176.144C117.406 176.144 118.398 175.776 119.166 175.024C119.934 174.272 120.334 173.296 120.334 172.096C120.334 170.912 119.934 169.936 119.166 169.184C118.398 168.448 117.406 168.064 116.19 168.064C114.942 168.064 113.95 168.448 113.182 169.2C112.414 169.968 112.03 170.928 112.03 172.096C112.03 173.28 112.414 174.256 113.182 175.008C113.95 175.776 114.942 176.144 116.19 176.144ZM116.19 174.256C115.582 174.256 115.102 174.064 114.718 173.648C114.334 173.232 114.158 172.72 114.158 172.096C114.158 171.488 114.334 170.976 114.718 170.56C115.102 170.144 115.582 169.936 116.19 169.936C116.766 169.936 117.246 170.144 117.63 170.544C118.014 170.944 118.206 171.456 118.206 172.096C118.206 172.736 117.998 173.248 117.614 173.648C117.23 174.064 116.75 174.256 116.19 174.256Z" fill="#F6F7F9"/>
<path d="M123.428 176H125.236L126.628 171.248H126.644L128.052 176H129.86L132.516 168.176H130.42L128.932 172.96H128.9L127.492 168.176H125.812L124.42 172.96H124.404L122.9 168.176H120.788L123.428 176Z" fill="#F6F7F9"/>
</svg>
