<svg width="21" height="21" viewBox="0 0 21 21" fill="none" xmlns="http://www.w3.org/2000/svg">
<path d="M11.9032 10.5L19.9594 2.44385C20.1531 2.25014 20.25 1.99576 20.25 1.74223C20.25 1.48869 20.1531 1.23436 19.9594 1.04064L19.9594 1.04062C19.5719 0.653138 18.9437 0.653117 18.5562 1.04062C18.5562 1.04062 18.5562 1.04063 18.5562 1.04063L10.5 9.09679L2.44381 1.04062C2.05632 0.653135 1.42807 0.653118 1.04061 1.04063C0.653187 1.4281 0.653102 2.05634 1.04063 2.44382L9.09685 10.5L1.04062 18.5562L1.2174 18.733L1.04062 18.5562C0.653133 18.9437 0.653117 19.5719 1.04063 19.9594C1.4281 20.3468 2.05633 20.3469 2.44381 19.9594C2.44381 19.9594 2.44382 19.9594 2.44382 19.9594L10.5 11.9032L18.5562 19.9594C18.9437 20.3469 19.572 20.3469 19.9594 19.9594C19.9594 19.9594 19.9594 19.9594 19.9594 19.9594L19.7826 19.7826L11.9032 10.5Z" fill="#1C2039" stroke="#1C2039" stroke-width="0.5"/>
</svg>
